<svg xmlns="http://www.w3.org/2000/svg" viewBox="0 0 482 460"><defs><style>.cls-1{fill:#fef261;}.cls-2{fill:#d8b43a;}.cls-3{fill:#57554a;}.cls-4{fill:#2f312f;}.cls-5{fill:#272827;}.cls-6{fill:#202120;}</style></defs><g id="Layer_2" data-name="Layer 2"><g id="Layer_1-2" data-name="Layer 1"><polygon class="cls-1" points="0 64 281 117 135 261 282 460 8 390 0 64"/><polygon class="cls-2" points="210 0 0 64 281 117 476 46 210 0"/><path class="cls-3" d="M208.15,188.85,285,206V121a35.48,35.48,0,0,0-7-1C255.3,142.39,230.85,166.46,208.15,188.85Z"/><polygon class="cls-3" points="285 292.9 141 255.08 208.15 188.85 285 205.3 285 292.9"/><path class="cls-3" d="M145.42,262C147,262,285,292.9,285,292.9v84.94L211,360Z"/><polygon class="cls-3" points="285 458.46 285 377.84 211 360 281 457 285 458.46"/><polygon class="cls-4" points="141 255.08 135 261 282 459 282 456 145.42 262 285 292.9 285 292 141 255.08"/><polygon class="cls-4" points="285 205.3 208.15 188.85 209 188 285 204.5 285 205.3"/><polygon class="cls-4" points="285 377.84 210 360 209 359 285 377 285 377.84"/><polygon class="cls-4" points="285 458.46 471 362 471 295.11 285 377.84 285 458.46"/><path class="cls-4" d="M285,377.84V292.9c0,.1,194-82.9,194-82.9l-3,80Z"/><polygon class="cls-4" points="285 292.9 285 205.3 479 129.98 477.55 206 285 292.9"/><polygon class="cls-4" points="285 205.3 285 121 482 49 479 129.98 285 205.3"/><polygon class="cls-5" points="285 121 482 49 473.3 46.98 281 117 278 120 285 121"/><polyline class="cls-5" points="281 117 278 120 285 121"/><polygon class="cls-2" points="282 460 135 261 281 117 281 118 136 261 282 458 282 460"/><polygon class="cls-6" points="477.5 211 477.55 206 285 292 285 292.9 285 293 477.5 211"/><polygon class="cls-6" points="285 205.3 285 204.5 479 129.5 479 131 285 205.3"/><polygon class="cls-6" points="285 377.84 285 377 471 292.3 471 296 285 377.84"/><polygon class="cls-6" points="285 458.46 471 362 470 364.12 285 458.46"/></g></g></svg>